<svg height="48" viewBox="0 0 12.7 12.7" width="48" xmlns="http://www.w3.org/2000/svg"><circle cx="14" cy="14" fill="#d80027" r="14" transform="matrix(.44929297 0 0 .42138383 .01401980151 .05394677289)"/><g fill="#f0f0f0"><path d="m213.412 209.186 1.193 1.644 1.932-.627-1.195 1.643 1.193 1.644-1.932-.629-1.195 1.643v-2.031l-1.932-.629 1.932-.627z" transform="matrix(.44929297 0 0 .42138383 -89.84771924928 -83.31473707346)"/><path d="m77.963 176.123a4.11 4.11 0 1 1 1.955-7.725 5.058 5.058 0 1 0 0 7.231 4.09 4.09 0 0 1 -1.955.494z" transform="matrix(.44929297 0 0 .42138383 -30.45478295904 -66.53059774073)"/></g></svg>