<svg xmlns="http://www.w3.org/2000/svg" id="Bildirimler_icon" width="36" height="36"><path id="Rectangle_149" fill="none" d="M0 0h36v36H0z"/><g id="_001-notification" transform="translate(6.275 4.5)"><path id="Path_224" d="M51.066 13.881v-2.527a8.2 8.2 0 0 0-5.809-7.833V2.376a2.376 2.376 0 0 0-4.753 0v1.145a8.2 8.2 0 0 0-5.804 7.833v2.527a12.438 12.438 0 0 1-3.476 8.648.792.792 0 0 0 .572 1.34H39a3.961 3.961 0 0 0 7.762 0h7.209a.792.792 0 0 0 .572-1.34 12.438 12.438 0 0 1-3.477-8.648zm-8.977-11.5a.792.792 0 0 1 1.584 0v.831a8.301 8.301 0 0 0-1.584 0zm.792 23.077a2.38 2.38 0 0 1-2.24-1.584h4.48a2.38 2.38 0 0 1-2.24 1.579zM33.5 22.285a14.005 14.005 0 0 0 2.781-8.4v-2.531a6.6 6.6 0 0 1 13.2 0v2.527a14 14 0 0 0 2.781 8.4z" fill="currentColor" transform="translate(-30.999)"/><path id="Path_225" d="M392.741 60.141a.792.792 0 0 0 1.584 0 11.8 11.8 0 0 0-3.48-8.4.792.792 0 0 0-1.12 1.12 10.23 10.23 0 0 1 3.016 7.28z" fill="currentColor" transform="translate(-370.561 -48.787)"/><path id="Path_226" d="M31.792 60.933a.792.792 0 0 0 .792-.792A10.23 10.23 0 0 1 35.6 52.86a.792.792 0 1 0-1.12-1.12 11.8 11.8 0 0 0-3.48 8.4.792.792 0 0 0 .792.793z" fill="currentColor" transform="translate(-31 -48.787)"/></g></svg>
