<svg xmlns="http://www.w3.org/2000/svg" id="uydu_icon" width="32" height="32" viewBox="0 0 32 32">
    <defs>
        <style>
            .cls-2{fill:#297a1a}
        </style>
    </defs>
    <path id="Rectangle_161" fill="none" d="M0 0H32V32H0z"/>
    <g id="satellite_1_" transform="translate(3.183 4.182)">
        <g id="Group_42" transform="translate(18.788 18.789)">
            <g id="Group_41">
                <path id="Path_20" d="M403.391 400.995a.469.469 0 0 0-.469.468 1.459 1.459 0 0 1-1.458 1.458.469.469 0 0 0 0 .937 2.4 2.4 0 0 0 2.395-2.395.469.469 0 0 0-.468-.468z" class="cls-2" transform="translate(-400.996 -400.995)"/>
            </g>
        </g>
        <g id="Group_44" transform="translate(18.788 18.789)">
            <g id="Group_43">
                <path id="Path_21" d="M405.729 400.995a.469.469 0 0 0-.468.468 3.8 3.8 0 0 1-3.8 3.8.469.469 0 1 0 0 .937 4.738 4.738 0 0 0 4.732-4.732.469.469 0 0 0-.464-.473z" class="cls-2" transform="translate(-400.997 -400.995)"/>
            </g>
        </g>
        <g id="Group_46" transform="translate(7.643 8.925)">
            <g id="Group_45">
                <path id="Path_22" d="M166.31 192.979l-2.385-2.385a.469.469 0 0 0-.663.663l2.385 2.385a.469.469 0 0 0 .663-.663z" class="cls-2" transform="translate(-163.125 -190.457)"/>
            </g>
        </g>
        <g id="Group_48" transform="translate(11.22 12.501)">
            <g id="Group_47">
                <path id="Path_23" d="M240.262 266.939a.469.469 0 1 0 .137.332.47.47 0 0 0-.137-.332z" class="cls-2" transform="translate(-239.462 -266.802)"/>
            </g>
        </g>
        <g id="Group_50" transform="translate(0 .001)">
            <g id="Group_49">
                <path id="Path_24" d="M14.554 8.761a1.406 1.406 0 0 0 1.988 0l4.241-4.241a1.406 1.406 0 0 0 0-1.988l-2.12-2.12a1.407 1.407 0 0 0-1.988 0l-4.241 4.241a1.406 1.406 0 0 0 0 1.988l.729.729-.652.652-2.538-2.539a2.283 2.283 0 0 0-3.228 0L5.482 6.745a2.283 2.283 0 0 0 0 3.228l2.539 2.539-.652.652-.729-.729a1.407 1.407 0 0 0-1.988 0L.411 16.676a1.407 1.407 0 0 0 0 1.988l2.12 2.12a1.407 1.407 0 0 0 1.988 0l4.241-4.241a1.407 1.407 0 0 0 0-1.988l-.729-.729.652-.652 2.539 2.539a2.268 2.268 0 0 0 1.614.669 2.3 2.3 0 0 0 .5-.055 4.114 4.114 0 0 0 1.078 3.913.469.469 0 0 0 .663 0l2.25-2.25.468.468a.469.469 0 0 0 .663-.663l-.469-.468 2.241-2.241a.469.469 0 0 0 0-.663 4.086 4.086 0 0 0-2.908-1.2 4.141 4.141 0 0 0-1 .121 2.3 2.3 0 0 0 .056-.5 2.268 2.268 0 0 0-.669-1.614l-2.535-2.546.652-.652zM15.88 8.1a.468.468 0 0 1-.663 0l-.729-.729 1.193-1.193 1.06 1.06zm1.52-1.526l-1.06-1.06 1.193-1.193 1.06 1.06zm2.72-3.379a.469.469 0 0 1 0 .663l-.861.861-1.059-1.06 1.193-1.193zm-2.783-2.12a.469.469 0 0 1 .663 0l.729.729L17.536 3l-1.06-1.06zM15.813 2.6l1.06 1.06-1.192 1.192-1.06-1.06zM5.315 13.1a.469.469 0 0 1 .663 0l.729.729-1.194 1.19-1.06-1.06zm-1.524 1.521l1.06 1.06-1.193 1.193-1.058-1.06zM1.074 18a.469.469 0 0 1 0-.663l.861-.861L3 17.537 1.8 18.73zm2.783 2.12a.469.469 0 0 1-.663 0l-.729-.729L3.658 18.2l1.06 1.06zm1.524-1.52l-1.06-1.06 1.193-1.193 1.06 1.06zM8.1 15.218a.469.469 0 0 1 0 .663l-.861.861-1.06-1.06 1.193-1.193zm9.225-1.062a3.151 3.151 0 0 1 1.89.623l-4.445 4.442a3.176 3.176 0 0 1 2.552-5.065zm-2.275-2.271a1.346 1.346 0 0 1 0 1.9l-1.262 1.262a1.346 1.346 0 0 1-1.9 0l-5.74-5.74a1.347 1.347 0 0 1 0-1.9l1.259-1.262a1.346 1.346 0 0 1 1.9 0l2.87 2.87zM13.1 5.978a.469.469 0 0 1 0-.663l.861-.861 1.06 1.06-1.196 1.193z" class="cls-2" transform="translate(0 -.001)"/>
            </g>
        </g>
        <g id="Group_52" transform="translate(18.723 18.725)">
            <g id="Group_51">
                <path id="Path_25" d="M400.416 399.762a.469.469 0 1 0 .137.332.473.473 0 0 0-.137-.332z" class="cls-2" transform="translate(-399.616 -399.625)"/>
            </g>
        </g>
    </g>
</svg>
