<svg height="32" viewBox="0 0 32 32" width="32" xmlns="http://www.w3.org/2000/svg"><path d="m0 0h32v32h-32z" fill="none"/><g fill="currentColor"><path d="m403.391 400.995a.469.469 0 0 0 -.469.468 1.459 1.459 0 0 1 -1.458 1.458.469.469 0 0 0 0 .937 2.4 2.4 0 0 0 2.395-2.395.469.469 0 0 0 -.468-.468z" transform="translate(-379.025 -378.024)"/><path d="m405.729 400.995a.469.469 0 0 0 -.468.468 3.8 3.8 0 0 1 -3.8 3.8.469.469 0 1 0 0 .937 4.738 4.738 0 0 0 4.732-4.732.469.469 0 0 0 -.464-.473z" transform="translate(-379.026 -378.024)"/><path d="m166.31 192.979-2.385-2.385a.469.469 0 0 0 -.663.663l2.385 2.385a.469.469 0 0 0 .663-.663z" transform="translate(-152.299 -177.35)"/><path d="m240.262 266.939a.469.469 0 1 0 .137.332.47.47 0 0 0 -.137-.332z" transform="translate(-225.059 -250.119)"/><path d="m14.554 8.761a1.406 1.406 0 0 0 1.988 0l4.241-4.241a1.406 1.406 0 0 0 0-1.988l-2.12-2.12a1.407 1.407 0 0 0 -1.988 0l-4.241 4.241a1.406 1.406 0 0 0 0 1.988l.729.729-.652.652-2.538-2.539a2.283 2.283 0 0 0 -3.228 0l-1.263 1.262a2.283 2.283 0 0 0 0 3.228l2.539 2.539-.652.652-.729-.729a1.407 1.407 0 0 0 -1.988 0l-4.241 4.241a1.407 1.407 0 0 0 0 1.988l2.12 2.12a1.407 1.407 0 0 0 1.988 0l4.241-4.241a1.407 1.407 0 0 0 0-1.988l-.729-.729.652-.652 2.539 2.539a2.268 2.268 0 0 0 1.614.669 2.3 2.3 0 0 0 .5-.055 4.114 4.114 0 0 0 1.078 3.913.469.469 0 0 0 .663 0l2.25-2.25.468.468a.469.469 0 0 0 .663-.663l-.469-.468 2.241-2.241a.469.469 0 0 0 0-.663 4.086 4.086 0 0 0 -2.908-1.2 4.141 4.141 0 0 0 -1 .121 2.3 2.3 0 0 0 .056-.5 2.268 2.268 0 0 0 -.669-1.614l-2.535-2.546.652-.652zm1.326-.661a.468.468 0 0 1 -.663 0l-.729-.729 1.193-1.193 1.06 1.06zm1.52-1.526-1.06-1.06 1.193-1.193 1.06 1.06zm2.72-3.379a.469.469 0 0 1 0 .663l-.861.861-1.059-1.06 1.193-1.193zm-2.783-2.12a.469.469 0 0 1 .663 0l.729.729-1.193 1.196-1.06-1.06zm-1.524 1.525 1.06 1.06-1.192 1.192-1.06-1.06zm-10.498 10.5a.469.469 0 0 1 .663 0l.729.729-1.194 1.19-1.06-1.06zm-1.524 1.521 1.06 1.06-1.193 1.193-1.058-1.06zm-2.717 3.379a.469.469 0 0 1 0-.663l.861-.861 1.065 1.061-1.2 1.193zm2.783 2.12a.469.469 0 0 1 -.663 0l-.729-.729 1.193-1.191 1.06 1.06zm1.524-1.52-1.06-1.06 1.193-1.193 1.06 1.06zm2.719-3.382a.469.469 0 0 1 0 .663l-.861.861-1.06-1.06 1.193-1.193zm9.225-1.062a3.151 3.151 0 0 1 1.89.623l-4.445 4.442a3.176 3.176 0 0 1 2.552-5.065zm-2.275-2.271a1.346 1.346 0 0 1 0 1.9l-1.262 1.262a1.346 1.346 0 0 1 -1.9 0l-5.74-5.74a1.347 1.347 0 0 1 0-1.9l1.259-1.262a1.346 1.346 0 0 1 1.9 0l2.87 2.87zm-1.95-5.907a.469.469 0 0 1 0-.663l.861-.861 1.06 1.06-1.196 1.193z" transform="translate(3.183 4.182)"/><path d="m400.416 399.762a.469.469 0 1 0 .137.332.473.473 0 0 0 -.137-.332z" transform="translate(-377.71 -376.718)"/></g></svg>
