<svg xmlns="http://www.w3.org/2000/svg" width="24" height="21.585">
    <path data-name="Partly Cloudy" d="M21.7 12.855a8.378 8.378 0 0 0-5.65-4.783A7.186 7.186 0 1 0 3.751 14.9 4.79 4.79 0 0 0 2 18.6a6.006 6.006 0 0 0 6 6h12a5.992 5.992 0 0 0 1.7-11.74zM9.2 5.4a4.815 4.815 0 0 1 4.174 2.451 8.328 8.328 0 0 0-7.384 5.877A4.738 4.738 0 0 1 4.4 10.2a4.8 4.8 0 0 1 4.8-4.8zM20 22.2H8a3.6 3.6 0 0 1-3.6-3.6 2.391 2.391 0 0 1 2.287-2.4l1.231.05.172-1.037a5.991 5.991 0 0 1 11.583-.938l.23.676.7.12A3.592 3.592 0 0 1 20 22.2z" transform="translate(-1.999 -3.01)" style="fill:#297a1a"/>
</svg>
